<?xml version="1.0" standalone="no"?>
<!DOCTYPE svg PUBLIC "-//W3C//DTD SVG 20010904//EN"
 "http://www.w3.org/TR/2001/REC-SVG-20010904/DTD/svg10.dtd">
<svg version="1.0" xmlns="http://www.w3.org/2000/svg"
 width="310.000000pt" height="310.000000pt" viewBox="0 0 310.000000 310.000000"
 preserveAspectRatio="xMidYMid meet">
<metadata>
Created by potrace 1.11, written by Peter Selinger 2001-2013
</metadata>
<g transform="translate(0.000000,310.000000) scale(0.100000,-0.100000)"
fill="#000000" stroke="none">
<path d="M1550 2950 c0 -4 -12 -5 -26 -2 -21 4 -25 2 -19 -9 7 -12 6 -11 -9 0
-15 13 -19 13 -27 0 -5 -8 -9 -9 -9 -3 0 6 -7 11 -15 11 -8 0 -15 -4 -15 -9 0
-4 -5 -8 -11 -8 -5 0 -8 4 -5 8 3 5 -1 9 -9 9 -8 0 -12 -4 -9 -9 3 -4 -5 -8
-18 -8 -78 -1 -98 -5 -93 -19 4 -11 3 -11 -9 -2 -10 9 -16 9 -21 1 -4 -6 -12
-9 -18 -7 -7 2 -22 0 -34 -4 -15 -6 -23 -5 -23 3 0 6 -9 1 -20 -12 -11 -13
-20 -18 -20 -11 0 8 -5 9 -19 2 -10 -6 -21 -7 -25 -4 -3 3 -6 -2 -6 -12 0 -14
-3 -15 -15 -5 -10 9 -15 9 -15 1 0 -6 -6 -11 -14 -11 -7 0 -26 -7 -42 -14 -15
-8 -32 -12 -38 -9 -6 3 -8 3 -4 -2 9 -10 -82 -56 -95 -48 -6 3 -7 1 -3 -5 4
-7 -3 -14 -19 -18 -13 -3 -22 -10 -19 -16 3 -5 -2 -8 -12 -6 -11 2 -18 -2 -17
-9 2 -7 -6 -10 -17 -8 -12 2 -18 0 -15 -5 3 -6 -10 -17 -29 -27 -19 -9 -33
-20 -30 -25 3 -4 -2 -8 -10 -8 -9 0 -16 -5 -16 -11 0 -6 -7 -8 -16 -5 -8 3
-12 2 -9 -4 3 -5 -4 -14 -15 -20 -11 -6 -20 -18 -20 -28 0 -15 -2 -15 -10 -2
-8 13 -10 12 -10 -3 0 -10 -4 -16 -9 -12 -12 7 -33 -29 -23 -39 3 -4 -2 -4
-12 0 -14 5 -17 4 -12 -4 4 -7 1 -12 -9 -12 -8 0 -20 -11 -27 -25 -6 -13 -14
-22 -18 -20 -4 2 -12 -7 -18 -20 -7 -14 -16 -25 -22 -25 -6 0 -8 -4 -5 -10 3
-5 -1 -10 -10 -10 -9 0 -13 -4 -10 -10 3 -5 1 -10 -5 -10 -6 0 -9 -4 -6 -9 3
-5 -1 -12 -10 -15 -8 -3 -12 -10 -9 -16 5 -9 -7 -14 -26 -12 -4 1 -6 -6 -5
-16 0 -9 -4 -16 -10 -15 -6 1 -11 -4 -11 -12 0 -8 5 -12 11 -9 6 3 3 -1 -6 -9
-10 -8 -18 -19 -18 -26 0 -6 -4 -11 -9 -11 -5 0 -12 -11 -15 -25 -4 -14 -11
-25 -16 -25 -5 0 -7 -7 -4 -15 4 -8 2 -15 -4 -15 -5 0 -13 -11 -16 -25 -4 -16
-11 -23 -18 -19 -7 5 -8 3 -4 -5 5 -7 0 -22 -11 -34 -16 -19 -16 -20 0 -8 15
12 17 12 11 -3 -3 -9 -10 -16 -16 -16 -5 0 -8 -8 -6 -17 2 -10 -2 -17 -9 -16
-7 2 -10 -4 -7 -12 4 -9 0 -15 -7 -15 -12 0 -12 -2 0 -9 9 -6 10 -11 2 -15 -6
-4 -9 -12 -6 -17 4 -5 1 -9 -6 -9 -8 0 -8 -4 1 -15 11 -13 10 -14 -2 -10 -12
5 -15 -2 -14 -33 2 -30 -1 -38 -11 -35 -16 6 -14 -18 2 -29 6 -5 5 -8 -4 -8
-7 0 -11 -6 -7 -15 3 -8 2 -15 -3 -15 -4 0 -8 -12 -7 -27 1 -18 -4 -27 -12
-25 -10 2 -10 -2 -2 -18 6 -11 7 -20 3 -20 -5 0 -10 -11 -11 -26 -1 -17 2 -23
10 -18 7 5 8 3 3 -7 -5 -7 -10 -28 -12 -47 -3 -25 -1 -32 9 -26 10 6 10 4 2
-7 -5 -8 -10 -26 -9 -41 0 -16 -4 -28 -10 -28 -5 0 -4 -4 3 -8 7 -5 11 -19 8
-33 -2 -13 1 -32 6 -43 7 -13 7 -16 -1 -11 -14 8 -11 -31 3 -54 7 -10 5 -12
-5 -7 -10 6 -10 4 1 -6 9 -8 15 -30 15 -55 0 -22 3 -39 7 -37 8 5 15 -21 21
-68 2 -15 6 -30 10 -34 3 -4 1 -16 -5 -28 -6 -11 -7 -18 -3 -14 5 4 14 3 22
-3 11 -10 11 -15 1 -27 -10 -13 -10 -14 0 -8 12 7 17 -10 13 -43 -2 -7 2 -10
8 -6 6 3 11 -2 11 -12 0 -11 6 -25 12 -32 11 -11 10 -13 -2 -7 -8 4 -5 -1 8
-12 22 -20 31 -39 12 -27 -5 3 -10 2 -10 -3 0 -6 7 -12 14 -15 8 -3 22 -20 31
-38 9 -17 11 -28 5 -24 -7 5 -7 0 2 -14 7 -12 16 -21 19 -21 7 0 22 -40 20
-53 -1 -4 2 -6 6 -5 5 2 9 -1 10 -5 1 -5 13 -18 27 -31 14 -12 26 -30 26 -39
0 -10 4 -16 9 -12 5 3 12 -4 16 -15 3 -11 14 -20 23 -20 11 0 13 -3 6 -8 -7
-5 -3 -15 13 -30 12 -12 23 -19 23 -15 0 4 6 -3 13 -17 8 -14 19 -24 27 -22 8
2 10 -3 6 -13 -3 -10 -2 -14 5 -10 6 4 13 -2 16 -13 3 -14 10 -19 21 -15 10 4
14 3 10 -1 -7 -9 25 -49 37 -46 4 1 20 -13 35 -30 16 -18 33 -29 39 -25 10 6
16 -8 12 -29 -1 -5 5 -3 14 4 9 7 15 9 13 4 -2 -5 1 -10 5 -11 5 -1 17 -11 26
-22 10 -11 21 -18 25 -14 3 3 6 0 6 -7 0 -7 3 -10 7 -7 3 4 12 -1 19 -11 8
-10 13 -12 14 -4 0 6 4 12 9 12 5 0 8 -8 7 -18 0 -10 6 -16 17 -16 9 1 17 -3
17 -8 0 -6 7 -7 16 -4 8 3 12 2 9 -3 -3 -5 -1 -12 5 -16 5 -3 10 0 10 7 0 8 4
7 11 -4 6 -11 16 -15 26 -11 12 5 14 3 8 -7 -6 -10 -4 -12 8 -7 12 4 17 1 17
-11 0 -15 2 -15 10 -2 6 10 10 11 10 3 0 -7 9 -13 21 -13 12 0 17 -4 13 -11
-4 -8 0 -8 15 0 17 9 21 9 19 -1 -2 -7 3 -12 11 -10 7 2 23 -5 35 -15 19 -17
20 -17 7 0 -12 15 -12 17 3 11 9 -3 16 -10 16 -14 0 -5 9 -7 20 -5 11 2 20 -1
20 -6 0 -6 8 -9 18 -7 9 2 23 -3 30 -12 8 -8 11 -9 7 -2 -7 14 21 17 29 3 3
-5 24 -7 46 -6 22 2 38 -1 35 -5 -3 -5 5 -6 17 -3 19 4 20 3 8 -6 -9 -7 -10
-11 -3 -11 6 0 15 5 18 10 5 8 12 7 23 -2 12 -10 14 -10 8 0 -4 7 -2 12 8 12
8 0 16 -6 19 -12 3 -10 8 -10 18 1 12 12 12 13 0 6 -10 -6 -12 -4 -6 5 7 11
10 10 19 -1 16 -20 58 -20 51 0 -3 11 0 10 10 -3 11 -14 15 -16 15 -5 0 11 2
12 9 0 6 -9 10 -10 16 -2 5 9 10 9 21 0 11 -9 19 -8 35 7 14 13 18 14 14 3 -4
-10 1 -15 15 -15 11 0 19 5 17 11 -3 5 6 10 18 10 18 0 21 -3 13 -12 -7 -9 -7
-13 0 -13 6 0 14 5 18 11 3 6 15 9 25 6 11 -3 17 -2 14 3 -3 4 2 11 11 14 8 3
12 2 9 -4 -7 -11 23 -9 43 3 6 5 12 6 12 2 0 -3 15 1 33 8 17 7 42 12 55 11
12 -1 25 3 29 9 4 6 1 7 -8 2 -8 -5 -11 -4 -6 1 5 5 12 9 15 9 4 0 12 4 19 8
6 4 15 2 18 -3 5 -7 12 -5 22 7 8 10 11 11 7 3 -7 -13 -5 -13 9 -1 9 7 17 10
17 5 0 -4 7 1 15 12 9 12 14 14 15 6 0 -7 5 -10 10 -7 6 4 8 11 4 16 -3 6 5 8
20 5 15 -3 24 -1 21 3 -4 7 21 20 48 25 4 0 12 8 17 16 5 8 12 11 16 8 3 -4
14 1 23 10 9 10 12 11 6 3 -6 -10 0 -8 16 4 15 11 24 24 21 29 -3 5 0 6 6 2 7
-4 21 2 33 13 12 11 26 18 30 16 4 -3 10 4 14 15 4 11 11 18 16 14 5 -3 24 10
42 28 18 19 38 33 45 30 7 -2 12 3 12 12 0 9 7 16 16 16 9 0 12 5 8 12 -5 8
-2 9 12 4 10 -4 15 -4 11 0 -4 4 2 14 13 21 11 8 18 19 14 24 -3 5 0 8 8 7 7
-2 12 3 10 10 -1 6 5 12 13 12 8 0 15 4 15 8 0 5 10 14 23 21 12 6 14 9 4 6
-10 -3 -15 -1 -12 5 3 6 13 10 21 10 8 0 13 4 9 9 -3 6 4 15 16 21 11 7 18 14
15 17 -3 3 5 16 19 28 13 13 21 26 18 29 -4 3 -1 6 5 6 7 0 12 7 12 16 0 8 4
13 9 10 5 -3 12 1 15 10 4 10 2 13 -7 9 -6 -4 -4 0 6 8 9 8 17 20 17 26 0 7 5
9 10 6 6 -3 10 4 10 18 0 14 7 30 15 37 8 7 15 21 15 31 0 11 7 19 16 19 8 0
12 5 9 10 -3 6 0 10 7 10 10 0 10 2 -1 9 -11 7 -9 11 8 20 12 7 19 17 15 23
-4 5 0 14 7 19 12 7 12 9 0 9 -11 0 -9 4 5 15 10 8 16 15 11 15 -4 0 0 14 8
30 9 17 13 35 10 40 -3 6 -1 10 5 10 6 0 8 5 5 10 -3 6 -1 10 6 10 8 0 7 5 -2
17 -12 15 -12 16 5 10 15 -6 17 -5 8 6 -9 10 -8 17 1 27 10 10 9 11 -3 4 -12
-6 -11 -2 3 19 20 30 22 41 6 31 -6 -3 -5 4 3 17 8 13 14 34 13 47 -1 12 2 22
8 22 6 0 5 5 -1 13 -7 8 -7 18 -2 27 5 9 5 19 -2 27 -7 9 -7 13 1 13 9 0 9 5
1 20 -6 11 -7 20 -3 20 5 0 10 11 11 25 1 14 -4 25 -11 25 -8 0 -7 4 3 10 8 5
11 10 6 10 -5 0 -3 7 4 15 11 13 10 14 -6 8 -17 -6 -17 -5 -5 10 7 9 10 17 7
17 -4 0 -2 10 5 21 8 15 8 19 0 15 -6 -4 -11 -3 -11 3 0 5 5 13 11 16 7 5 5
13 -5 24 -9 10 -14 20 -11 23 11 10 14 49 4 42 -6 -3 -8 5 -5 22 3 15 0 34 -6
41 -8 9 -7 13 1 13 7 0 9 5 6 10 -4 6 -12 7 -18 4 -9 -5 -9 -4 0 6 9 10 9 18
1 34 -6 12 -11 22 -10 24 1 1 2 9 2 18 0 9 -5 12 -12 8 -8 -5 -7 0 2 11 8 10
10 16 3 12 -12 -7 -13 -3 -14 51 0 13 -5 20 -11 16 -6 -4 -9 -1 -6 7 3 8 -2
23 -11 33 -9 11 -11 17 -5 13 6 -3 11 0 11 7 0 8 -6 12 -13 9 -8 -3 -11 2 -10
14 2 10 -4 24 -13 31 -9 8 -10 10 -2 6 10 -5 8 3 -5 27 -10 19 -23 37 -27 40
-5 3 -7 8 -6 10 5 7 -25 69 -33 69 -5 0 -8 5 -8 11 0 7 -8 18 -17 26 -12 9
-12 12 -3 8 8 -4 2 4 -13 18 -19 17 -24 27 -15 30 8 4 7 6 -4 6 -11 1 -15 6
-11 16 3 9 2 15 -3 13 -5 -2 -9 1 -9 5 0 5 -8 13 -18 18 -9 6 -15 14 -12 20 4
5 -1 9 -9 9 -9 0 -16 4 -16 10 0 5 -12 21 -27 36 -16 15 -22 23 -15 20 6 -4
12 -5 12 -1 0 3 -12 10 -26 15 -14 6 -22 14 -19 20 6 9 -8 14 -27 11 -5 0 -7
3 -5 8 1 5 -10 20 -25 34 -15 14 -24 28 -20 31 3 4 -2 4 -12 0 -11 -4 -17 -3
-14 2 7 11 -17 35 -26 27 -3 -4 -6 -1 -6 5 0 6 -9 14 -20 17 -11 4 -18 11 -15
16 4 5 -1 9 -9 9 -9 0 -16 4 -16 10 0 5 -6 9 -12 7 -7 -1 -12 4 -10 12 2 9 -4
12 -17 8 -12 -3 -19 0 -18 6 1 6 -4 12 -10 13 -7 1 -18 2 -24 3 -5 0 -8 5 -5
9 2 4 -5 14 -17 22 -20 12 -21 12 -8 -3 20 -25 6 -21 -22 6 -12 12 -29 23 -37
25 -8 2 -17 8 -18 13 -2 5 -7 7 -12 4 -5 -3 -16 2 -24 11 -9 8 -16 12 -16 8 0
-3 -6 -1 -13 5 -8 6 -17 8 -20 4 -4 -3 -10 2 -14 12 -6 18 -7 18 -14 -1 -7
-18 -8 -18 -8 0 -1 12 -6 16 -16 12 -9 -3 -18 1 -21 9 -4 8 -10 12 -15 9 -5
-3 -9 0 -9 7 0 9 -3 9 -14 0 -12 -10 -17 -8 -25 8 -9 17 -16 19 -36 11 -18 -7
-25 -6 -25 2 0 6 -3 8 -7 5 -3 -4 -14 0 -24 9 -11 10 -19 12 -24 5 -3 -6 -11
-11 -16 -11 -6 0 -8 4 -4 10 3 5 -9 8 -30 6 -19 -1 -35 1 -35 6 0 4 -5 8 -11
8 -5 0 -7 -4 -4 -10 7 -11 -23 -2 -42 12 -15 12 -36 0 -26 -15 4 -7 0 -6 -10
2 -9 7 -17 10 -17 6 0 -4 -7 -1 -16 6 -22 18 -46 18 -62 -1 -8 -8 -11 -10 -8
-4 3 7 -5 14 -19 16 -14 3 -25 2 -25 -2z"/>
</g>
</svg>
